<svg width="496" height="172" viewBox="0 0 496 172" fill="none" xmlns="http://www.w3.org/2000/svg">
<rect x="1.5" y="1.5" width="493.009" height="169" rx="26.5" stroke="white" stroke-width="3"/>
<path d="M107.614 71.5264C107.079 71.9359 97.6443 77.1867 97.6443 88.8619C97.6443 102.366 109.65 107.144 110.009 107.262C109.954 107.553 108.102 113.805 103.679 120.175C99.7359 125.781 95.6173 131.377 89.352 131.377C83.0866 131.377 81.4742 127.783 74.2414 127.783C67.1929 127.783 64.6867 131.495 58.9558 131.495C53.2248 131.495 49.226 126.308 44.6284 119.938C39.3028 112.458 35 100.838 35 89.8083C35 72.1179 46.6462 62.7358 58.1081 62.7358C64.1984 62.7358 69.2752 66.6852 73.0989 66.6852C76.7383 66.6852 82.414 62.4992 89.3428 62.4992C91.9687 62.4992 101.404 62.7358 107.614 71.5264ZM86.0534 55.0099C88.9189 51.652 90.9459 46.9928 90.9459 42.3336C90.9459 41.6875 90.8907 41.0323 90.7709 40.5045C86.1087 40.6774 80.562 43.5712 77.2174 47.4023C74.5915 50.3507 72.1407 55.0099 72.1407 59.7328C72.1407 60.4426 72.2604 61.1524 72.3157 61.3799C72.6106 61.4345 73.0897 61.4982 73.5688 61.4982C77.7518 61.4982 83.0129 58.7318 86.0534 55.0099Z" fill="white"/>
<path d="M147.632 59.3627C145.383 59.3627 143.472 58.9758 141.901 58.202C140.353 57.4041 139.168 56.2797 138.346 54.8288C137.524 53.3538 137.065 51.5886 136.968 49.5332C136.944 48.5418 136.932 47.4779 136.932 46.3414C136.932 45.2049 136.944 44.1167 136.968 43.077C137.065 41.0458 137.524 39.2927 138.346 37.8176C139.192 36.3426 140.389 35.2182 141.937 34.4444C143.509 33.6464 145.407 33.2475 147.632 33.2475C149.276 33.2475 150.751 33.4651 152.057 33.9003C153.362 34.3356 154.475 34.9401 155.394 35.7139C156.312 36.4635 157.026 37.3461 157.534 38.3617C158.041 39.3773 158.307 40.4775 158.332 41.6624C158.356 41.88 158.283 42.0614 158.114 42.2064C157.969 42.3515 157.788 42.4241 157.57 42.4241H154.124C153.858 42.4241 153.641 42.3636 153.471 42.2427C153.302 42.0976 153.181 41.8679 153.109 41.5536C152.722 39.9576 152.057 38.8695 151.114 38.2892C150.171 37.7088 148.998 37.4187 147.595 37.4187C145.975 37.4187 144.682 37.8781 143.714 38.797C142.747 39.6916 142.227 41.1788 142.155 43.2583C142.082 45.2411 142.082 47.2723 142.155 49.3519C142.227 51.4314 142.747 52.9306 143.714 53.8495C144.682 54.7442 145.975 55.1915 147.595 55.1915C148.998 55.1915 150.171 54.9014 151.114 54.321C152.057 53.7165 152.722 52.6284 153.109 51.0566C153.181 50.7181 153.302 50.4884 153.471 50.3675C153.641 50.2466 153.858 50.1861 154.124 50.1861H157.57C157.788 50.1861 157.969 50.2586 158.114 50.4037C158.283 50.5488 158.356 50.7302 158.332 50.9478C158.307 52.1327 158.041 53.2329 157.534 54.2485C157.026 55.2641 156.312 56.1588 155.394 56.9325C154.475 57.6821 153.362 58.2746 152.057 58.7098C150.751 59.1451 149.276 59.3627 147.632 59.3627ZM170.54 59.3627C168.606 59.3627 166.974 59.0242 165.644 58.3471C164.338 57.6701 163.334 56.7149 162.633 55.4817C161.956 54.2485 161.569 52.8097 161.472 51.1654C161.448 50.7302 161.436 50.1982 161.436 49.5695C161.436 48.9408 161.448 48.4088 161.472 47.9736C161.569 46.3051 161.968 44.8663 162.669 43.6573C163.395 42.4241 164.41 41.4689 165.716 40.7919C167.046 40.1148 168.654 39.7763 170.54 39.7763C172.426 39.7763 174.022 40.1148 175.328 40.7919C176.658 41.4689 177.674 42.4241 178.375 43.6573C179.1 44.8663 179.511 46.3051 179.608 47.9736C179.632 48.4088 179.644 48.9408 179.644 49.5695C179.644 50.1982 179.632 50.7302 179.608 51.1654C179.511 52.8097 179.112 54.2485 178.411 55.4817C177.734 56.7149 176.731 57.6701 175.401 58.3471C174.095 59.0242 172.475 59.3627 170.54 59.3627ZM170.54 55.7719C171.822 55.7719 172.813 55.3729 173.514 54.5749C174.216 53.7528 174.603 52.5558 174.675 50.9841C174.699 50.6214 174.711 50.1498 174.711 49.5695C174.711 48.9892 174.699 48.5176 174.675 48.1549C174.603 46.6073 174.216 45.4225 173.514 44.6003C172.813 43.7782 171.822 43.3671 170.54 43.3671C169.259 43.3671 168.267 43.7782 167.566 44.6003C166.865 45.4225 166.478 46.6073 166.405 48.1549C166.381 48.5176 166.369 48.9892 166.369 49.5695C166.369 50.1498 166.381 50.6214 166.405 50.9841C166.478 52.5558 166.865 53.7528 167.566 54.5749C168.267 55.3729 169.259 55.7719 170.54 55.7719ZM184.534 59C184.292 59 184.086 58.9154 183.917 58.7461C183.748 58.5768 183.663 58.3713 183.663 58.1295V41.0095C183.663 40.7677 183.748 40.5622 183.917 40.3929C184.086 40.2236 184.292 40.139 184.534 40.139H187.363C187.604 40.139 187.81 40.2236 187.979 40.3929C188.149 40.5622 188.233 40.7677 188.233 41.0095V42.2427C188.741 41.5657 189.418 40.9974 190.264 40.538C191.135 40.0544 192.163 39.8005 193.347 39.7763C196.104 39.7279 198.026 40.804 199.115 43.0044C199.671 42.0372 200.469 41.2634 201.508 40.6831C202.572 40.0785 203.745 39.7763 205.027 39.7763C206.284 39.7763 207.421 40.0664 208.436 40.6468C209.476 41.2271 210.286 42.1097 210.866 43.2946C211.471 44.4553 211.773 45.9303 211.773 47.7197V58.1295C211.773 58.3713 211.689 58.5768 211.519 58.7461C211.35 58.9154 211.144 59 210.903 59H207.928C207.687 59 207.481 58.9154 207.312 58.7461C207.143 58.5768 207.058 58.3713 207.058 58.1295V48.0098C207.058 46.9217 206.901 46.0633 206.586 45.4346C206.272 44.7817 205.849 44.3223 205.317 44.0563C204.785 43.7903 204.193 43.6573 203.54 43.6573C203.008 43.6573 202.476 43.7903 201.944 44.0563C201.412 44.3223 200.976 44.7817 200.638 45.4346C200.299 46.0633 200.13 46.9217 200.13 48.0098V58.1295C200.13 58.3713 200.046 58.5768 199.876 58.7461C199.707 58.9154 199.501 59 199.26 59H196.285C196.019 59 195.802 58.9154 195.633 58.7461C195.487 58.5768 195.415 58.3713 195.415 58.1295V48.0098C195.415 46.9217 195.246 46.0633 194.907 45.4346C194.569 44.7817 194.133 44.3223 193.601 44.0563C193.069 43.7903 192.501 43.6573 191.897 43.6573C191.34 43.6573 190.796 43.8024 190.264 44.0925C189.732 44.3585 189.297 44.8059 188.959 45.4346C188.62 46.0633 188.451 46.9217 188.451 48.0098V58.1295C188.451 58.3713 188.366 58.5768 188.197 58.7461C188.028 58.9154 187.822 59 187.58 59H184.534ZM217.263 59C217.021 59 216.815 58.9154 216.646 58.7461C216.477 58.5768 216.392 58.3713 216.392 58.1295V41.0095C216.392 40.7677 216.477 40.5622 216.646 40.3929C216.815 40.2236 217.021 40.139 217.263 40.139H220.273C220.539 40.139 220.745 40.2236 220.89 40.3929C221.059 40.5622 221.144 40.7677 221.144 41.0095V58.1295C221.144 58.3713 221.059 58.5768 220.89 58.7461C220.745 58.9154 220.539 59 220.273 59H217.263ZM217.118 37.0197C216.852 37.0197 216.634 36.9471 216.465 36.802C216.32 36.6328 216.247 36.4151 216.247 36.1492V33.5376C216.247 33.2958 216.32 33.0903 216.465 32.921C216.634 32.7518 216.852 32.6671 217.118 32.6671H220.418C220.684 32.6671 220.902 32.7518 221.071 32.921C221.24 33.0903 221.325 33.2958 221.325 33.5376V36.1492C221.325 36.4151 221.24 36.6328 221.071 36.802C220.902 36.9471 220.684 37.0197 220.418 37.0197H217.118ZM226.826 59C226.584 59 226.379 58.9154 226.21 58.7461C226.04 58.5768 225.956 58.3713 225.956 58.1295V41.0095C225.956 40.7677 226.04 40.5622 226.21 40.3929C226.379 40.2236 226.584 40.139 226.826 40.139H229.801C230.042 40.139 230.248 40.2236 230.417 40.3929C230.586 40.5622 230.671 40.7677 230.671 41.0095V42.4966C231.3 41.7228 232.098 41.082 233.065 40.5742C234.056 40.0423 235.277 39.7763 236.728 39.7763C238.203 39.7763 239.485 40.1148 240.573 40.7919C241.661 41.4448 242.495 42.3757 243.076 43.5848C243.68 44.7938 243.983 46.2446 243.983 47.9373V58.1295C243.983 58.3713 243.898 58.5768 243.729 58.7461C243.559 58.9154 243.354 59 243.112 59H239.92C239.678 59 239.473 58.9154 239.304 58.7461C239.134 58.5768 239.05 58.3713 239.05 58.1295V48.1549C239.05 46.7524 238.699 45.6522 237.998 44.8542C237.321 44.0563 236.329 43.6573 235.024 43.6573C233.766 43.6573 232.763 44.0563 232.013 44.8542C231.263 45.6522 230.889 46.7524 230.889 48.1549V58.1295C230.889 58.3713 230.804 58.5768 230.635 58.7461C230.465 58.9154 230.26 59 230.018 59H226.826ZM257.114 66.9797C255.348 66.9797 253.898 66.7499 252.761 66.2905C251.625 65.8311 250.73 65.2749 250.077 64.622C249.424 63.9692 248.953 63.3163 248.662 62.6634C248.396 62.0347 248.251 61.539 248.227 61.1763C248.203 60.9345 248.275 60.7168 248.445 60.5234C248.638 60.3541 248.856 60.2695 249.098 60.2695H252.253C252.495 60.2695 252.688 60.3179 252.834 60.4146C252.979 60.5355 253.1 60.741 253.196 61.0312C253.341 61.3455 253.535 61.6841 253.777 62.0468C254.018 62.4095 254.381 62.7118 254.865 62.9536C255.373 63.2195 256.062 63.3525 256.932 63.3525C257.851 63.3525 258.625 63.2195 259.254 62.9536C259.882 62.6876 260.354 62.2402 260.668 61.6115C261.007 60.9828 261.176 60.1123 261.176 59V56.5336C260.596 57.2348 259.846 57.8031 258.927 58.2383C258.032 58.6736 256.92 58.8912 255.59 58.8912C254.284 58.8912 253.16 58.6856 252.217 58.2746C251.274 57.8393 250.488 57.2469 249.859 56.4973C249.231 55.7235 248.747 54.8167 248.408 53.777C248.094 52.7372 247.913 51.5886 247.864 50.3312C247.84 49.6783 247.84 49.0254 247.864 48.3725C247.913 47.1635 248.094 46.0391 248.408 44.9993C248.723 43.9596 249.194 43.0528 249.823 42.279C250.476 41.481 251.274 40.8644 252.217 40.4292C253.16 39.9939 254.284 39.7763 255.59 39.7763C256.968 39.7763 258.129 40.0423 259.072 40.5742C260.015 41.082 260.789 41.7228 261.394 42.4966V41.0458C261.394 40.7798 261.478 40.5622 261.647 40.3929C261.817 40.2236 262.022 40.139 262.264 40.139H265.202C265.444 40.139 265.649 40.2236 265.819 40.3929C265.988 40.5622 266.073 40.7798 266.073 41.0458L266.109 58.5285C266.109 60.2695 265.782 61.7687 265.129 63.0261C264.477 64.2835 263.485 65.2507 262.155 65.9278C260.849 66.629 259.169 66.9797 257.114 66.9797ZM256.932 55.0464C257.924 55.0464 258.722 54.8288 259.326 54.3936C259.931 53.9583 260.378 53.3901 260.668 52.6888C260.958 51.9876 261.128 51.2742 261.176 50.5488C261.2 50.2345 261.212 49.8355 261.212 49.3519C261.212 48.8683 261.2 48.4814 261.176 48.1912C261.128 47.4416 260.958 46.7283 260.668 46.0512C260.378 45.3499 259.931 44.7817 259.326 44.3464C258.722 43.887 257.924 43.6573 256.932 43.6573C255.941 43.6573 255.143 43.887 254.538 44.3464C253.934 44.7817 253.499 45.362 253.233 46.0875C252.991 46.8129 252.846 47.6109 252.797 48.4814C252.749 49.0617 252.749 49.6541 252.797 50.2586C252.846 51.105 252.991 51.9029 253.233 52.6525C253.499 53.378 253.934 53.9583 254.538 54.3936C255.143 54.8288 255.941 55.0464 256.932 55.0464ZM286.374 59.3627C284.924 59.3627 283.678 59.1934 282.639 58.8549C281.623 58.5164 280.789 58.0932 280.136 57.5854C279.483 57.0776 278.999 56.5698 278.685 56.062C278.371 55.5542 278.201 55.1311 278.177 54.7925C278.153 54.5266 278.226 54.321 278.395 54.1759C278.588 54.0067 278.794 53.922 279.011 53.922H281.877C281.974 53.922 282.058 53.9341 282.131 53.9583C282.203 53.9825 282.3 54.055 282.421 54.1759C282.735 54.4419 283.062 54.72 283.4 55.0102C283.763 55.3003 284.186 55.5542 284.67 55.7719C285.153 55.9653 285.758 56.062 286.483 56.062C287.426 56.062 288.212 55.8807 288.841 55.518C289.494 55.1311 289.82 54.587 289.82 53.8858C289.82 53.378 289.675 52.9669 289.385 52.6525C289.119 52.3382 288.611 52.0601 287.862 51.8183C287.112 51.5523 286.048 51.2742 284.67 50.9841C283.316 50.6697 282.191 50.2707 281.297 49.7871C280.402 49.3035 279.737 48.699 279.302 47.9736C278.866 47.2481 278.649 46.4018 278.649 45.4346C278.649 44.4915 278.927 43.5968 279.483 42.7505C280.063 41.88 280.91 41.1667 282.022 40.6105C283.158 40.0544 284.561 39.7763 286.229 39.7763C287.535 39.7763 288.672 39.9455 289.639 40.2841C290.606 40.5984 291.404 40.9974 292.033 41.481C292.686 41.9646 293.181 42.4603 293.52 42.9681C293.858 43.4518 294.04 43.8749 294.064 44.2376C294.088 44.5036 294.016 44.7212 293.846 44.8905C293.677 45.0356 293.484 45.1081 293.266 45.1081H290.582C290.461 45.1081 290.352 45.084 290.255 45.0356C290.159 44.9872 290.062 44.9268 289.965 44.8542C289.699 44.6124 289.409 44.3585 289.095 44.0925C288.78 43.8266 288.394 43.5968 287.934 43.4034C287.499 43.1858 286.919 43.077 286.193 43.077C285.274 43.077 284.573 43.2825 284.089 43.6936C283.606 44.0805 283.364 44.5762 283.364 45.1807C283.364 45.5918 283.473 45.9545 283.69 46.2688C283.932 46.559 284.404 46.8371 285.105 47.1031C285.806 47.369 286.87 47.6471 288.297 47.9373C289.917 48.2275 291.199 48.6627 292.142 49.2431C293.109 49.7992 293.786 50.4521 294.173 51.2017C294.584 51.9271 294.789 52.7372 294.789 53.6319C294.789 54.72 294.463 55.6993 293.81 56.5698C293.181 57.4403 292.238 58.1295 290.981 58.6373C289.748 59.1209 288.212 59.3627 286.374 59.3627ZM306.876 59.3627C304.941 59.3627 303.309 59.0242 301.979 58.3471C300.674 57.6701 299.67 56.7149 298.969 55.4817C298.292 54.2485 297.905 52.8097 297.808 51.1654C297.784 50.7302 297.772 50.1982 297.772 49.5695C297.772 48.9408 297.784 48.4088 297.808 47.9736C297.905 46.3051 298.304 44.8663 299.005 43.6573C299.73 42.4241 300.746 41.4689 302.052 40.7919C303.382 40.1148 304.99 39.7763 306.876 39.7763C308.762 39.7763 310.358 40.1148 311.664 40.7919C312.994 41.4689 314.009 42.4241 314.71 43.6573C315.436 44.8663 315.847 46.3051 315.944 47.9736C315.968 48.4088 315.98 48.9408 315.98 49.5695C315.98 50.1982 315.968 50.7302 315.944 51.1654C315.847 52.8097 315.448 54.2485 314.747 55.4817C314.07 56.7149 313.066 57.6701 311.736 58.3471C310.43 59.0242 308.81 59.3627 306.876 59.3627ZM306.876 55.7719C308.157 55.7719 309.149 55.3729 309.85 54.5749C310.551 53.7528 310.938 52.5558 311.011 50.9841C311.035 50.6214 311.047 50.1498 311.047 49.5695C311.047 48.9892 311.035 48.5176 311.011 48.1549C310.938 46.6073 310.551 45.4225 309.85 44.6003C309.149 43.7782 308.157 43.3671 306.876 43.3671C305.594 43.3671 304.603 43.7782 303.902 44.6003C303.2 45.4225 302.814 46.6073 302.741 48.1549C302.717 48.5176 302.705 48.9892 302.705 49.5695C302.705 50.1498 302.717 50.6214 302.741 50.9841C302.814 52.5558 303.2 53.7528 303.902 54.5749C304.603 55.3729 305.594 55.7719 306.876 55.7719ZM328.341 59.3627C326.407 59.3627 324.774 59.0242 323.444 58.3471C322.139 57.6701 321.135 56.7149 320.434 55.4817C319.757 54.2485 319.37 52.8097 319.273 51.1654C319.249 50.7302 319.237 50.1982 319.237 49.5695C319.237 48.9408 319.249 48.4088 319.273 47.9736C319.37 46.3051 319.769 44.8663 320.47 43.6573C321.196 42.4241 322.211 41.4689 323.517 40.7919C324.847 40.1148 326.455 39.7763 328.341 39.7763C330.227 39.7763 331.823 40.1148 333.129 40.7919C334.459 41.4689 335.474 42.4241 336.176 43.6573C336.901 44.8663 337.312 46.3051 337.409 47.9736C337.433 48.4088 337.445 48.9408 337.445 49.5695C337.445 50.1982 337.433 50.7302 337.409 51.1654C337.312 52.8097 336.913 54.2485 336.212 55.4817C335.535 56.7149 334.531 57.6701 333.201 58.3471C331.896 59.0242 330.276 59.3627 328.341 59.3627ZM328.341 55.7719C329.623 55.7719 330.614 55.3729 331.315 54.5749C332.017 53.7528 332.403 52.5558 332.476 50.9841C332.5 50.6214 332.512 50.1498 332.512 49.5695C332.512 48.9892 332.5 48.5176 332.476 48.1549C332.403 46.6073 332.017 45.4225 331.315 44.6003C330.614 43.7782 329.623 43.3671 328.341 43.3671C327.059 43.3671 326.068 43.7782 325.367 44.6003C324.666 45.4225 324.279 46.6073 324.206 48.1549C324.182 48.5176 324.17 48.9892 324.17 49.5695C324.17 50.1498 324.182 50.6214 324.206 50.9841C324.279 52.5558 324.666 53.7528 325.367 54.5749C326.068 55.3729 327.059 55.7719 328.341 55.7719ZM342.334 59C342.093 59 341.887 58.9154 341.718 58.7461C341.549 58.5768 341.464 58.3713 341.464 58.1295V41.0095C341.464 40.7677 341.549 40.5622 341.718 40.3929C341.887 40.2236 342.093 40.139 342.334 40.139H345.309C345.55 40.139 345.756 40.2236 345.925 40.3929C346.094 40.5622 346.179 40.7677 346.179 41.0095V42.4966C346.808 41.7228 347.606 41.082 348.573 40.5742C349.564 40.0423 350.786 39.7763 352.236 39.7763C353.711 39.7763 354.993 40.1148 356.081 40.7919C357.169 41.4448 358.004 42.3757 358.584 43.5848C359.188 44.7938 359.491 46.2446 359.491 47.9373V58.1295C359.491 58.3713 359.406 58.5768 359.237 58.7461C359.067 58.9154 358.862 59 358.62 59H355.428C355.186 59 354.981 58.9154 354.812 58.7461C354.642 58.5768 354.558 58.3713 354.558 58.1295V48.1549C354.558 46.7524 354.207 45.6522 353.506 44.8542C352.829 44.0563 351.837 43.6573 350.532 43.6573C349.274 43.6573 348.271 44.0563 347.521 44.8542C346.772 45.6522 346.397 46.7524 346.397 48.1549V58.1295C346.397 58.3713 346.312 58.5768 346.143 58.7461C345.974 58.9154 345.768 59 345.526 59H342.334ZM380.729 59.3627C378.794 59.3627 377.162 59.0242 375.832 58.3471C374.526 57.6701 373.523 56.7149 372.822 55.4817C372.145 54.2485 371.758 52.8097 371.661 51.1654C371.637 50.7302 371.625 50.1982 371.625 49.5695C371.625 48.9408 371.637 48.4088 371.661 47.9736C371.758 46.3051 372.157 44.8663 372.858 43.6573C373.583 42.4241 374.599 41.4689 375.905 40.7919C377.235 40.1148 378.843 39.7763 380.729 39.7763C382.615 39.7763 384.211 40.1148 385.517 40.7919C386.847 41.4689 387.862 42.4241 388.563 43.6573C389.289 44.8663 389.7 46.3051 389.797 47.9736C389.821 48.4088 389.833 48.9408 389.833 49.5695C389.833 50.1982 389.821 50.7302 389.797 51.1654C389.7 52.8097 389.301 54.2485 388.6 55.4817C387.923 56.7149 386.919 57.6701 385.589 58.3471C384.283 59.0242 382.663 59.3627 380.729 59.3627ZM380.729 55.7719C382.01 55.7719 383.002 55.3729 383.703 54.5749C384.404 53.7528 384.791 52.5558 384.864 50.9841C384.888 50.6214 384.9 50.1498 384.9 49.5695C384.9 48.9892 384.888 48.5176 384.864 48.1549C384.791 46.6073 384.404 45.4225 383.703 44.6003C383.002 43.7782 382.01 43.3671 380.729 43.3671C379.447 43.3671 378.456 43.7782 377.755 44.6003C377.053 45.4225 376.666 46.6073 376.594 48.1549C376.57 48.5176 376.558 48.9892 376.558 49.5695C376.558 50.1498 376.57 50.6214 376.594 50.9841C376.666 52.5558 377.053 53.7528 377.755 54.5749C378.456 55.3729 379.447 55.7719 380.729 55.7719ZM394.722 59C394.48 59 394.275 58.9154 394.106 58.7461C393.936 58.5768 393.852 58.3713 393.852 58.1295V41.0095C393.852 40.7677 393.936 40.5622 394.106 40.3929C394.275 40.2236 394.48 40.139 394.722 40.139H397.696C397.938 40.139 398.144 40.2236 398.313 40.3929C398.482 40.5622 398.567 40.7677 398.567 41.0095V42.4966C399.196 41.7228 399.994 41.082 400.961 40.5742C401.952 40.0423 403.173 39.7763 404.624 39.7763C406.099 39.7763 407.381 40.1148 408.469 40.7919C409.557 41.4448 410.391 42.3757 410.972 43.5848C411.576 44.7938 411.878 46.2446 411.878 47.9373V58.1295C411.878 58.3713 411.794 58.5768 411.625 58.7461C411.455 58.9154 411.25 59 411.008 59H407.816C407.574 59 407.369 58.9154 407.199 58.7461C407.03 58.5768 406.946 58.3713 406.946 58.1295V48.1549C406.946 46.7524 406.595 45.6522 405.894 44.8542C405.217 44.0563 404.225 43.6573 402.919 43.6573C401.662 43.6573 400.659 44.0563 399.909 44.8542C399.159 45.6522 398.785 46.7524 398.785 48.1549V58.1295C398.785 58.3713 398.7 58.5768 398.531 58.7461C398.361 58.9154 398.156 59 397.914 59H394.722Z" fill="white"/>
<path d="M137.7 128C137.29 128 136.905 127.846 136.547 127.539C136.239 127.231 136.085 126.847 136.085 126.386C136.085 126.181 136.137 125.95 136.239 125.694L154.766 76.1099C154.92 75.5974 155.202 75.1618 155.611 74.8031C156.073 74.3931 156.688 74.1881 157.456 74.1881H165.836C166.605 74.1881 167.194 74.3931 167.604 74.8031C168.014 75.1618 168.321 75.5974 168.526 76.1099L187.053 125.694C187.104 125.95 187.13 126.181 187.13 126.386C187.13 126.847 186.976 127.231 186.669 127.539C186.361 127.846 186.002 128 185.592 128H178.904C178.187 128 177.649 127.846 177.29 127.539C176.983 127.18 176.778 126.847 176.675 126.539L173.062 117.161H150.23L146.617 126.539C146.515 126.847 146.284 127.18 145.925 127.539C145.618 127.846 145.105 128 144.388 128H137.7ZM152.921 108.32H170.371L161.608 84.5661L152.921 108.32ZM189.925 142.606C189.413 142.606 188.977 142.427 188.618 142.068C188.259 141.709 188.08 141.274 188.08 140.761V89.8704C188.08 89.3579 188.259 88.9223 188.618 88.5635C188.977 88.2048 189.413 88.0254 189.925 88.0254H195.998C196.562 88.0254 196.997 88.2048 197.305 88.5635C197.664 88.9223 197.843 89.3579 197.843 89.8704V92.9454C199.073 91.3054 200.687 89.9473 202.686 88.871C204.685 87.7948 207.17 87.2567 210.143 87.2567C212.859 87.2567 215.217 87.6923 217.215 88.5635C219.214 89.4348 220.88 90.6904 222.212 92.3304C223.545 93.9191 224.57 95.8153 225.287 98.0191C226.005 100.223 226.415 102.657 226.517 105.322C226.568 106.193 226.594 107.09 226.594 108.013C226.594 108.935 226.568 109.858 226.517 110.78C226.466 113.343 226.082 115.726 225.364 117.929C224.647 120.082 223.596 121.978 222.212 123.618C220.88 125.207 219.214 126.463 217.215 127.385C215.217 128.307 212.859 128.769 210.143 128.769C207.375 128.769 205.018 128.282 203.071 127.308C201.123 126.283 199.534 124.951 198.304 123.311V140.761C198.304 141.274 198.125 141.709 197.766 142.068C197.459 142.427 197.023 142.606 196.459 142.606H189.925ZM207.299 120.543C209.502 120.543 211.219 120.082 212.449 119.159C213.679 118.186 214.55 116.93 215.063 115.393C215.627 113.855 215.96 112.164 216.062 110.319C216.165 108.781 216.165 107.244 216.062 105.706C215.96 103.862 215.627 102.17 215.063 100.633C214.55 99.0953 213.679 97.8653 212.449 96.9428C211.219 95.9691 209.502 95.4822 207.299 95.4822C205.197 95.4822 203.48 95.9691 202.148 96.9428C200.867 97.9166 199.919 99.1722 199.304 100.71C198.74 102.196 198.407 103.733 198.304 105.322C198.253 106.245 198.227 107.218 198.227 108.243C198.227 109.268 198.253 110.268 198.304 111.241C198.356 112.779 198.714 114.265 199.381 115.7C200.047 117.084 201.021 118.237 202.302 119.159C203.583 120.082 205.249 120.543 207.299 120.543ZM231.764 142.606C231.252 142.606 230.816 142.427 230.458 142.068C230.099 141.709 229.919 141.274 229.919 140.761V89.8704C229.919 89.3579 230.099 88.9223 230.458 88.5635C230.816 88.2048 231.252 88.0254 231.764 88.0254H237.837C238.401 88.0254 238.837 88.2048 239.144 88.5635C239.503 88.9223 239.682 89.3579 239.682 89.8704V92.9454C240.912 91.3054 242.527 89.9473 244.526 88.871C246.524 87.7948 249.01 87.2567 251.982 87.2567C254.699 87.2567 257.056 87.6923 259.055 88.5635C261.053 89.4348 262.719 90.6904 264.052 92.3304C265.384 93.9191 266.409 95.8153 267.127 98.0191C267.844 100.223 268.254 102.657 268.357 105.322C268.408 106.193 268.433 107.09 268.433 108.013C268.433 108.935 268.408 109.858 268.357 110.78C268.305 113.343 267.921 115.726 267.203 117.929C266.486 120.082 265.435 121.978 264.052 123.618C262.719 125.207 261.053 126.463 259.055 127.385C257.056 128.307 254.699 128.769 251.982 128.769C249.215 128.769 246.857 128.282 244.91 127.308C242.962 126.283 241.374 124.951 240.144 123.311V140.761C240.144 141.274 239.964 141.709 239.606 142.068C239.298 142.427 238.862 142.606 238.299 142.606H231.764ZM249.138 120.543C251.342 120.543 253.059 120.082 254.289 119.159C255.519 118.186 256.39 116.93 256.902 115.393C257.466 113.855 257.799 112.164 257.902 110.319C258.004 108.781 258.004 107.244 257.902 105.706C257.799 103.862 257.466 102.17 256.902 100.633C256.39 99.0953 255.519 97.8653 254.289 96.9428C253.059 95.9691 251.342 95.4822 249.138 95.4822C247.037 95.4822 245.32 95.9691 243.987 96.9428C242.706 97.9166 241.758 99.1722 241.143 100.71C240.579 102.196 240.246 103.733 240.144 105.322C240.092 106.245 240.067 107.218 240.067 108.243C240.067 109.268 240.092 110.268 240.144 111.241C240.195 112.779 240.554 114.265 241.22 115.7C241.886 117.084 242.86 118.237 244.141 119.159C245.422 120.082 247.088 120.543 249.138 120.543ZM303.471 128.769C298.704 128.769 294.707 128.077 291.478 126.693C288.301 125.258 285.866 123.413 284.175 121.158C282.535 118.852 281.664 116.443 281.561 113.932C281.561 113.471 281.715 113.086 282.023 112.779C282.33 112.471 282.715 112.318 283.176 112.318H290.018C290.684 112.318 291.171 112.471 291.478 112.779C291.837 113.035 292.144 113.368 292.401 113.778C292.708 114.752 293.298 115.726 294.169 116.699C295.04 117.622 296.219 118.391 297.705 119.006C299.243 119.621 301.164 119.928 303.471 119.928C307.161 119.928 309.902 119.313 311.696 118.083C313.541 116.853 314.464 115.188 314.464 113.086C314.464 111.6 313.977 110.421 313.003 109.55C312.029 108.628 310.517 107.808 308.467 107.09C306.469 106.321 303.804 105.527 300.472 104.707C296.629 103.785 293.4 102.683 290.786 101.402C288.224 100.069 286.276 98.4034 284.944 96.4047C283.663 94.406 283.022 91.8691 283.022 88.7942C283.022 85.8217 283.816 83.1823 285.405 80.8761C287.045 78.5699 289.351 76.7505 292.324 75.4181C295.348 74.0856 298.935 73.4193 303.086 73.4193C306.417 73.4193 309.364 73.8806 311.927 74.8031C314.489 75.6743 316.616 76.853 318.307 78.3393C319.999 79.7743 321.28 81.3374 322.151 83.0286C323.074 84.6686 323.56 86.2829 323.612 87.8717C323.612 88.2817 323.458 88.666 323.15 89.0248C322.894 89.3323 322.51 89.486 321.997 89.486H314.848C314.438 89.486 314.028 89.3835 313.618 89.1785C313.208 88.9735 312.875 88.5892 312.619 88.0254C312.311 86.4367 311.312 85.0786 309.621 83.9511C307.929 82.8236 305.751 82.2599 303.086 82.2599C300.319 82.2599 298.089 82.7724 296.398 83.7973C294.707 84.8223 293.861 86.4111 293.861 88.5635C293.861 89.9985 294.271 91.2029 295.091 92.1766C295.963 93.0991 297.321 93.9191 299.166 94.6366C301.062 95.3541 303.547 96.1228 306.622 96.9428C310.979 97.9166 314.54 99.0441 317.308 100.325C320.075 101.607 322.1 103.247 323.381 105.245C324.662 107.193 325.303 109.678 325.303 112.702C325.303 116.085 324.38 118.98 322.535 121.389C320.742 123.746 318.205 125.566 314.925 126.847C311.645 128.128 307.827 128.769 303.471 128.769ZM345.875 128C342.8 128 340.211 127.462 338.11 126.386C336.009 125.309 334.446 123.721 333.421 121.619C332.396 119.467 331.883 116.802 331.883 113.625V96.1741H325.81C325.298 96.1741 324.862 95.9947 324.503 95.636C324.145 95.2772 323.965 94.8416 323.965 94.3291V89.8704C323.965 89.3579 324.145 88.9223 324.503 88.5635C324.862 88.2048 325.298 88.0254 325.81 88.0254H331.883V75.2643C331.883 74.7518 332.037 74.3162 332.345 73.9574C332.703 73.5987 333.165 73.4193 333.728 73.4193H339.955C340.468 73.4193 340.903 73.5987 341.262 73.9574C341.621 74.3162 341.8 74.7518 341.8 75.2643V88.0254H351.409C351.922 88.0254 352.358 88.2048 352.716 88.5635C353.075 88.9223 353.254 89.3579 353.254 89.8704V94.3291C353.254 94.8416 353.075 95.2772 352.716 95.636C352.358 95.9947 351.922 96.1741 351.409 96.1741H341.8V112.856C341.8 114.957 342.159 116.597 342.876 117.776C343.645 118.954 344.952 119.544 346.797 119.544H352.101C352.614 119.544 353.049 119.723 353.408 120.082C353.767 120.441 353.946 120.876 353.946 121.389V126.155C353.946 126.668 353.767 127.103 353.408 127.462C353.049 127.821 352.614 128 352.101 128H345.875ZM373.066 128.769C368.966 128.769 365.506 128.051 362.688 126.616C359.92 125.181 357.793 123.157 356.307 120.543C354.872 117.929 354.052 114.88 353.847 111.395C353.796 110.473 353.77 109.345 353.77 108.013C353.77 106.68 353.796 105.553 353.847 104.63C354.052 101.094 354.898 98.0447 356.384 95.4822C357.922 92.8685 360.074 90.8441 362.841 89.4092C365.66 87.9742 369.068 87.2567 373.066 87.2567C377.063 87.2567 380.446 87.9742 383.213 89.4092C386.032 90.8441 388.184 92.8685 389.671 95.4822C391.208 98.0447 392.079 101.094 392.284 104.63C392.336 105.553 392.361 106.68 392.361 108.013C392.361 109.345 392.336 110.473 392.284 111.395C392.079 114.88 391.234 117.929 389.747 120.543C388.312 123.157 386.186 125.181 383.367 126.616C380.599 128.051 377.166 128.769 373.066 128.769ZM373.066 121.158C375.782 121.158 377.883 120.313 379.369 118.621C380.856 116.879 381.676 114.342 381.829 111.011C381.881 110.242 381.906 109.243 381.906 108.013C381.906 106.783 381.881 105.783 381.829 105.015C381.676 101.735 380.856 99.2234 379.369 97.4809C377.883 95.7385 375.782 94.8672 373.066 94.8672C370.35 94.8672 368.248 95.7385 366.762 97.4809C365.276 99.2234 364.456 101.735 364.302 105.015C364.251 105.783 364.225 106.783 364.225 108.013C364.225 109.243 364.251 110.242 364.302 111.011C364.456 114.342 365.276 116.879 366.762 118.621C368.248 120.313 370.35 121.158 373.066 121.158ZM397.342 128C396.83 128 396.394 127.821 396.036 127.462C395.677 127.103 395.497 126.668 395.497 126.155V89.9473C395.497 89.3835 395.677 88.9223 396.036 88.5635C396.394 88.2048 396.83 88.0254 397.342 88.0254H403.569C404.082 88.0254 404.517 88.2048 404.876 88.5635C405.286 88.9223 405.491 89.3835 405.491 89.9473V93.0991C406.67 91.4591 408.182 90.2035 410.027 89.3323C411.923 88.461 414.101 88.0254 416.561 88.0254H419.713C420.277 88.0254 420.712 88.2048 421.02 88.5635C421.378 88.9223 421.558 89.3579 421.558 89.8704V95.4053C421.558 95.9178 421.378 96.3535 421.02 96.7122C420.712 97.071 420.277 97.2503 419.713 97.2503H413.717C411.257 97.2503 409.335 97.9422 407.951 99.3259C406.619 100.71 405.952 102.606 405.952 105.015V126.155C405.952 126.668 405.773 127.103 405.414 127.462C405.055 127.821 404.594 128 404.03 128H397.342ZM438.866 128.769C433.178 128.769 428.668 127.129 425.337 123.849C422.005 120.569 420.212 115.905 419.955 109.858C419.904 109.345 419.879 108.705 419.879 107.936C419.879 107.116 419.904 106.475 419.955 106.014C420.16 102.17 421.032 98.8391 422.569 96.0203C424.158 93.2016 426.336 91.0491 429.103 89.5629C431.871 88.0254 435.125 87.2567 438.866 87.2567C443.018 87.2567 446.503 88.1279 449.321 89.8704C452.14 91.5616 454.267 93.9447 455.702 97.0197C457.137 100.043 457.854 103.554 457.854 107.551V109.166C457.854 109.678 457.675 110.114 457.316 110.473C456.958 110.831 456.496 111.011 455.933 111.011H430.41C430.41 111.011 430.41 111.088 430.41 111.241C430.41 111.395 430.41 111.523 430.41 111.626C430.462 113.42 430.795 115.085 431.41 116.623C432.076 118.109 433.024 119.313 434.254 120.236C435.535 121.158 437.047 121.619 438.79 121.619C440.225 121.619 441.429 121.414 442.403 121.004C443.376 120.543 444.171 120.031 444.786 119.467C445.401 118.903 445.836 118.442 446.093 118.083C446.554 117.468 446.913 117.109 447.169 117.007C447.476 116.853 447.912 116.776 448.476 116.776H455.087C455.599 116.776 456.009 116.93 456.317 117.238C456.676 117.545 456.829 117.929 456.778 118.391C456.727 119.211 456.291 120.21 455.471 121.389C454.703 122.568 453.575 123.721 452.089 124.848C450.603 125.976 448.732 126.924 446.477 127.693C444.273 128.41 441.736 128.769 438.866 128.769ZM430.41 104.553H447.399V104.323C447.399 102.324 447.066 100.582 446.4 99.0953C445.734 97.6091 444.76 96.4303 443.479 95.5591C442.198 94.6879 440.66 94.2522 438.866 94.2522C437.073 94.2522 435.535 94.6879 434.254 95.5591C432.973 96.4303 431.999 97.6091 431.333 99.0953C430.718 100.582 430.41 102.324 430.41 104.323V104.553Z" fill="white"/>
</svg>
